HIERARCHY
ROOT hip
{
  OFFSET 0 0 0
  CHANNELS 6 Xposition Yposition Zposition Zrotation Yrotation Xrotation
  JOINT abdomen
  {
    OFFSET 0 20.6881 -0.73152
    CHANNELS 3 Zrotation Xrotation Yrotation
    JOINT chest
    {
      OFFSET 0 11.7043 -0.48768
      CHANNELS 3 Zrotation Xrotation Yrotation
      JOINT neck
      {
        OFFSET 0 22.1894 -2.19456
        CHANNELS 3 Zrotation Xrotation Yrotation
        JOINT head
        {
          OFFSET -0.24384 7.07133 1.2192
          CHANNELS 3 Zrotation Xrotation Yrotation
          JOINT leftEye
          {
            OFFSET 4.14528 8.04674 8.04672
            CHANNELS 3 Zrotation Xrotation Yrotation
            End Site
            {
              OFFSET 1 0 0
            }
          }
          JOINT rightEye
          {
            OFFSET -3.6576 8.04674 8.04672
            CHANNELS 3 Zrotation Xrotation Yrotation
            End Site
            {
              OFFSET 1 0 0
            }
          }
        }
      }
      JOINT rCollar
      {
        OFFSET -2.68224 19.2634 -4.8768
        CHANNELS 3 Zrotation Xrotation Yrotation
        JOINT rShldr
        {
          OFFSET -8.77824 -1.95073 1.46304
          CHANNELS 3 Zrotation Xrotation Yrotation
          JOINT rForeArm
          {
            OFFSET -28.1742 -1.7115 0.48768
            CHANNELS 3 Zrotation Xrotation Yrotation
            JOINT rHand
            {
              OFFSET -22.5879 0.773209 7.07136
              CHANNELS 3 Zrotation Xrotation Yrotation
              JOINT rThumb1
              {
                OFFSET -1.2192 -0.487915 3.41376
                CHANNELS 3 Zrotation Xrotation Yrotation
                JOINT rThumb2
                {
                  OFFSET -3.37035 -0.52449 3.41376
                  CHANNELS 3 Zrotation Xrotation Yrotation
                  End Site
                  {
                    OFFSET -1.78271 -1.18214 1.43049
                  }
                }
              }
              JOINT rIndex1
              {
                OFFSET -7.75947 0.938293 5.60832
                CHANNELS 3 Zrotation Xrotation Yrotation
                JOINT rIndex2
                {
                  OFFSET -2.54057 -0.884171 1.56538
                  CHANNELS 3 Zrotation Xrotation Yrotation
                  End Site
                  {
                    OFFSET -1.62519 -0.234802 1.16502
                  }
                }
              }
              JOINT rMid1
              {
                OFFSET -8.24714 1.18213 3.41376
                CHANNELS 3 Zrotation Xrotation Yrotation
                JOINT rMid2
                {
                  OFFSET -3.10165 -0.590103 1.0647
                  CHANNELS 3 Zrotation Xrotation Yrotation
                  End Site
                  {
                    OFFSET -2.48547 -0.328903 0.83742
                  }
                }
              }
              JOINT rRing1
              {
                OFFSET -8.82822 0.546677 1.51678
                CHANNELS 3 Zrotation Xrotation Yrotation
                JOINT rRing2
                {
                  OFFSET -2.60934 -0.819778 -0.0198488
                  CHANNELS 3 Zrotation Xrotation Yrotation
                  End Site
                  {
                    OFFSET -2.33842 -0.294052 0.168128
                  }
                }
              }
              JOINT rPinky1
              {
                OFFSET -8.27202 -0.0477905 -0.4584
                CHANNELS 3 Zrotation Xrotation Yrotation
                JOINT rPinky2
                {
                  OFFSET -1.82734 -0.647385 -0.700984
                  CHANNELS 3 Zrotation Xrotation Yrotation
                  End Site
                  {
                    OFFSET -1.69225 -0.51767 -0.607171
                  }
                }
              }
            }
          }
        }
      }
      JOINT lCollar
      {
        OFFSET 2.68224 19.2634 -4.8768
        CHANNELS 3 Zrotation Xrotation Yrotation
        JOINT lShldr
        {
          OFFSET 8.77824 -1.95073 1.46304
          CHANNELS 3 Zrotation Xrotation Yrotation
          JOINT lForeArm
          {
            OFFSET 28.1742 -1.7115 0.48768
            CHANNELS 3 Zrotation Xrotation Yrotation
            JOINT lHand
            {
              OFFSET 22.5879 0.773209 7.07136
              CHANNELS 3 Zrotation Xrotation Yrotation
              JOINT lThumb1
              {
                OFFSET 1.2192 -0.487915 3.41376
                CHANNELS 3 Zrotation Xrotation Yrotation
                JOINT lThumb2
                {
                  OFFSET 3.37035 -0.52449 3.41376
                  CHANNELS 3 Zrotation Xrotation Yrotation
                  End Site
                  {
                    OFFSET 1.78271 -1.18214 1.43049
                  }
                }
              }
              JOINT lIndex1
              {
                OFFSET 7.75947 0.938293 5.60832
                CHANNELS 3 Zrotation Xrotation Yrotation
                JOINT lIndex2
                {
                  OFFSET 2.54057 -0.884171 1.56538
                  CHANNELS 3 Zrotation Xrotation Yrotation
                  End Site
                  {
                    OFFSET 1.62519 -0.234802 1.16502
                  }
                }
              }
              JOINT lMid1
              {
                OFFSET 8.24714 1.18213 3.41376
                CHANNELS 3 Zrotation Xrotation Yrotation
                JOINT lMid2
                {
                  OFFSET 3.10165 -0.590103 1.0647
                  CHANNELS 3 Zrotation Xrotation Yrotation
                  End Site
                  {
                    OFFSET 2.48547 -0.328903 0.83742
                  }
                }
              }
              JOINT lRing1
              {
                OFFSET 8.82822 0.546677 1.51678
                CHANNELS 3 Zrotation Xrotation Yrotation
                JOINT lRing2
                {
                  OFFSET 2.60934 -0.819778 -0.0198488
                  CHANNELS 3 Zrotation Xrotation Yrotation
                  End Site
                  {
                    OFFSET 2.33842 -0.294052 0.168128
                  }
                }
              }
              JOINT lPinky1
              {
                OFFSET 8.27202 -0.0477905 -0.4584
                CHANNELS 3 Zrotation Xrotation Yrotation
                JOINT lPinky2
                {
                  OFFSET 1.82734 -0.647385 -0.700984
                  CHANNELS 3 Zrotation Xrotation Yrotation
                  End Site
                  {
                    OFFSET 1.69225 -0.51767 -0.607171
                  }
                }
              }
            }
          }
        }
      }
    }
  }
  JOINT rButtock
  {
    OFFSET -8.77824 4.35084 1.2192
    CHANNELS 3 Zrotation Xrotation Yrotation
    JOINT rThigh
    {
      OFFSET 0 -1.70687 -2.19456
      CHANNELS 3 Zrotation Xrotation Yrotation
      JOINT rShin
      {
        OFFSET 0 -36.8199 0.73152
        CHANNELS 3 Zrotation Xrotation Yrotation
        JOINT rFoot
        {
          OFFSET 0.73152 -45.1104 -5.12064
          CHANNELS 3 Zrotation Xrotation Yrotation
          End Site
          {
            OFFSET -1.1221 -3.69964 12.103
          }
        }
      }
    }
  }
  JOINT lButtock
  {
    OFFSET 8.77824 4.35084 1.2192
    CHANNELS 3 Zrotation Xrotation Yrotation
    JOINT lThigh
    {
      OFFSET 0 -1.70687 -2.19456
      CHANNELS 3 Zrotation Xrotation Yrotation
      JOINT lShin
      {
        OFFSET 0 -36.8199 0.73152
        CHANNELS 3 Zrotation Xrotation Yrotation
        JOINT lFoot
        {
          OFFSET -0.73152 -45.1104 -5.12064
          CHANNELS 3 Zrotation Xrotation Yrotation
          End Site
          {
            OFFSET 1.1221 -3.69964 12.103
          }
        }
      }
    }
  }
}
MOTION
Frames:	6
Frame Time:	0.03333
0.0 0.0 0.0 0.0 0.0 0.0 0.0 0.0 0.0 0.0 0.0 0.0 0.0 0.0 0.0 0.0 0.0 0.0 0.0 0.0 0.0 0.0 0.0 0.0 0.0 0.0 0.0 0.0 0.0 0.0 0.0 0.0 0.0 0.0 0.0 0.0 0.0 0.0 0.0 0.0 0.0 0.0 0.0 0.0 0.0 0.0 0.0 0.0 0.0 0.0 0.0 0.0 0.0 0.0 0.0 0.0 0.0 0.0 0.0 0.0 0.0 0.0 0.0 0.0 0.0 0.0 0.0 0.0 0.0 0.0 0.0 0.0 0.0 0.0 0.0 0.0 0.0 0.0 0.0 0.0 0.0 0.0 0.0 0.0 0.0 0.0 0.0 0.0 0.0 0.0 0.0 0.0 0.0 0.0 0.0 0.0 0.0 0.0 0.0 0.0 0.0 0.0 0.0 0.0 0.0 0.0 0.0 0.0 0.0 0.0 0.0 0.0 0.0 0.0 0.0 0.0 0.0 0.0 0.0 0.0 0.0 0.0 0.0 0.0 0.0 0.0 0.0 0.0 0.0 0.0 0.0 0.0
-0.16169999999999998 59.8208 0.0898 -0.304965 41.244251 -1.582848 2.034413 2.989081 -59.506772 -8.966342 -7.525278 116.430195 9.457573 -8.142807 104.048611 -36.870551 41.474812 -127.688089 -135.495563 -17.07797 -40.302925 -25.955827 10.623527 -43.940788 84.155289 -10.292346 -0.143156 10.600508 -48.848057 8.217039 13.810251 -74.59381 -169.77927 170.664302 -35.658227 95.731378 -177.007615 -21.792592 53.274797 -22.145141 -3.039605 -122.753394 -162.845156 -37.516507 150.190322 169.671228 -80.834553 -159.92582 127.978476 27.345318 -161.853232 -176.036191 67.968362 11.322583 5.668497 2.471851 -108.654848 -82.039369 -17.727047 -165.427102 35.706825 3.401038 -41.333313 -25.115339 -30.473972 -49.420533 -52.974734 23.10274 -26.218708 -25.720208 28.139728 0.347949 175.641529 0.088907 15.749515 177.781146 45.710169 -82.154102 -5.733613 -9.41706 -47.246461 135.100376 15.204751 -98.395237 -7.837673 -36.276796 -55.160559 23.86847 59.483103 3.888033 39.560093 -36.404926 -5.366535 129.750629 -69.757969 -97.100596 -177.915418 -74.337298 66.865027 -168.155378 -54.9173 72.029946 150.869398 -13.167005 62.011552 132.913013 65.989186 -126.225992 -35.861214 42.692065 -127.997103 8.530367 52.897463 141.351327 -3.946375 7.283311 -114.554814 43.518354 77.330438 -42.627141 -34.977195 52.198344 -138.477226 -1.177069 57.263056 175.119571 4.574042 4.758899 144.608224 -74.945434 -21.150581 103.704302
-0.5670999999999999 60.1162 0.1037 5.185922 -24.914967 1.733541 -6.565914 14.47515 0.0 0.569136 -11.321008 -3.051858 -2.12865 18.452379 32.10621 -17.861065 -26.936126 -69.161673 -5.871433 0.140479 -2.738782 24.850471 -1.633521 -7.404287 -161.514036 -22.902972 159.810719 -133.402867 -40.748933 -141.157955 -108.839443 -61.053682 -61.955042 2.591424 15.312788 -1.918549 -97.673064 36.879339 50.142902 74.28371 -45.79326 34.437871 18.763274 -35.34501 0.695476 179.947683 -36.13964 86.876328 90.089008 -79.903496 88.113691 -170.186997 45.800041 161.835497 -147.650703 -0.157348 179.789092 -138.995175 -37.367484 -169.600616 4.42322 32.56814 3.793876 -92.921568 -65.634535 -91.452114 54.384106 -75.725459 76.476394 -151.499943 14.12335 127.009254 -2.487214 -17.61289 -94.802028 15.3742 -37.277287 10.909786 -56.004041 -47.508776 -4.359598 2.91271 -68.13381 47.808268 0.663593 19.045064 -4.760125 143.908573 -12.559164 -112.987946 -6.945461 -32.900628 7.568107 160.64954 -18.172814 -139.073707 -17.425034 25.411452 1.271978 14.925625 33.921832 2.848891 35.869292 24.985969 -51.106427 93.10603 -10.202639 140.119498 3.886535 -0.224247 -0.0 -65.191049 -57.582837 -68.683269 -52.294541 81.228852 -172.884294 -88.911343 -37.033487 -179.855634 -4.868645 -0.871312 -0.0 22.274741 -4.740464 2.403229 -21.984026 56.109047 -83.44325 26.170946 17.429594 127.130212
-0.9542999999999999 57.2947 0.1562 6.384518 -23.973045 6.742007 -7.817064 7.94513 44.804868 -7.001529 -4.989628 -38.881512 -11.242419 38.675239 -134.999772 38.490611 42.947555 75.400671 -16.124638 5.196899 -35.529381 21.010486 0.257876 1.390596 0.731832 -61.707582 -19.041047 -114.382018 -1.619713 149.339237 15.889246 36.181728 -79.049862 167.652555 -27.812186 142.357056 -11.875719 24.070929 11.669555 -7.799541 5.373191 15.621833 21.496098 -24.859954 -18.762342 -88.00961 22.062974 75.116715 -163.792822 -1.30749 138.201429 -7.395174 -25.520114 -9.052173 19.498602 -3.353776 2.644755 -65.397744 -62.704983 -80.589375 -156.219836 37.444416 -173.492772 -40.368795 33.562528 87.238713 134.272058 47.640804 -137.874277 98.029943 9.892275 -93.257128 -13.15964 -21.265443 133.044273 147.688244 34.12139 -122.900814 -7.782023 0.786136 11.357441 -49.315753 -44.27723 -22.248076 152.683274 -9.704259 -129.712762 0.8796 10.026589 15.974211 149.624778 30.289421 -120.098314 -87.76237 -59.157581 -63.866131 48.344244 -83.409463 74.693611 2.491522 32.206456 -19.574121 17.642276 35.398376 -35.879207 -37.863765 -11.195823 11.421243 142.34023 72.419873 38.992863 159.731162 -1.90319 -95.164569 -88.534587 0.814197 -126.788211 -147.358083 -4.923852 149.408103 0.333615 -4.228113 4.515655 17.082716 -4.408407 75.957119 58.263242 16.113626 85.493765 31.791056 57.197014 -152.469303
-2.0815 58.1968 -0.4821 5.91401 -17.840111 8.341098 -10.157541 16.022066 2.420388 0.296447 -14.044624 4.010111 -3.315239 39.372818 -179.813556 2.744062 57.77205 135.202277 128.994197 7.170135 -14.964537 2.555534 -1.112649 -47.049814 6.018903 -33.93856 -8.641652 -83.430081 26.688265 116.392525 148.771285 -47.068045 -163.229793 -21.917838 60.896341 7.207212 179.458756 -12.68277 85.529897 -89.270374 -6.737355 26.89941 -158.561169 -14.290892 132.922775 -8.597065 -69.510517 -48.465666 -7.564331 49.849282 2.287778 171.817724 19.635243 130.547617 28.432175 -24.200458 8.874673 -22.055049 -19.342017 -15.660673 -153.408869 54.762653 -161.015094 11.874064 -2.102989 27.581402 3.218269 -1.171787 -3.338099 93.276981 -18.365891 163.555854 -0.450426 6.486909 132.863498 157.375872 21.353925 -128.291065 -14.940474 -3.899207 -9.195786 119.514714 -53.450564 -176.074818 -89.361346 -80.072898 -55.815714 -24.991344 -6.639985 33.734433 158.201955 17.643654 -125.21635 91.223711 33.831022 -70.412705 128.577338 32.804885 -150.064361 -4.58894 -10.773913 18.420268 -6.671433 19.319979 0.079602 29.81852 -35.06325 25.056888 -37.078834 12.257152 -36.735319 48.871177 -67.003624 -180.0 75.199438 -67.535956 -157.114555 164.041738 -13.255463 -41.725066 8.006916 4.641383 2.041977 13.945894 -9.2481 57.09007 36.018184 27.313476 9.017183 -143.918554 -4.885123 30.914833
-4.6456 64.5116 -1.0957 2.10895 -6.191391 12.555406 -3.435674 17.920037 -0.0 -1.336785 -13.707458 4.212838 1.694179 18.416271 41.856621 -38.677913 -27.256294 -84.267303 72.938776 6.602755 8.924898 169.370919 -7.097633 67.382194 1.843976 -0.096892 -1.431656 -16.010449 16.051317 59.384809 40.924955 -60.917127 94.816838 -7.541137 38.262731 -5.924686 179.952495 -5.634593 84.49196 25.03388 -44.292882 31.949189 82.164036 -76.136802 46.071759 -33.157624 44.600089 28.631009 -30.268553 57.117505 15.500635 -19.741374 -28.845507 -1.997103 -133.211614 -4.429487 173.147379 -118.69842 -63.215726 -167.839168 -76.267059 -44.335452 -75.168396 -148.819834 36.081603 -150.012765 -1.365926 -43.798787 7.137947 100.896023 -13.504845 139.503318 -118.342455 -41.076522 123.335917 27.712188 17.064991 -1.481571 -8.851375 1.651075 -6.850851 -22.757399 3.211378 45.682559 167.104653 -36.202807 -137.959264 2.387983 3.994822 69.582801 0.933259 -0.172045 -8.985445 27.286273 -46.765447 81.378066 131.133328 28.934383 -157.783834 -35.887954 29.448792 3.015139 -42.226894 35.267641 15.753889 82.604931 -64.020023 25.067758 4.515347 -3.534948 -5.537396 -45.094573 -61.74794 -114.639257 -80.991465 23.619379 172.35283 -5.129339 86.90949 -83.198092 -156.852133 61.175114 -12.522913 -162.681035 37.997909 56.063965 43.920031 26.895334 -112.593749 159.989192 -33.424507 -80.626221
